M48
; DRILL file {KiCad (6.0.6)} date Thu Nov 17 16:30:17 2022
; FORMAT={-:-/ absolute / inch / decimal}
; #@! TF.CreationDate,2022-11-17T16:30:17-05:00
; #@! TF.GenerationSoftware,Kicad,Pcbnew,(6.0.6)
; #@! TF.FileFunction,Plated,1,2,PTH
FMAT,2
INCH
; #@! TA.AperFunction,Plated,PTH,ComponentDrill
T1C0.0315
; #@! TA.AperFunction,Plated,PTH,ComponentDrill
T2C0.0394
%
G90
G05
T1
X4.4685Y-3.6429
X4.4685Y-3.7217
X4.4685Y-3.8004
X4.4685Y-3.8791
X4.4685Y-3.9579
X4.4685Y-4.0366
X4.4685Y-4.1154
X4.5472Y-3.6429
X4.5472Y-3.7217
X4.5472Y-3.8004
X4.5472Y-3.8791
X4.5472Y-3.9579
X4.5472Y-4.0366
X4.5472Y-4.1154
T2
X4.8715Y-3.5978
X4.8715Y-3.6978
X4.8715Y-3.7978
X4.8715Y-3.8978
X4.8715Y-3.9978
X4.8715Y-4.0978
X4.8715Y-4.1978
X4.9715Y-3.5978
X4.9715Y-3.6978
X4.9715Y-3.7978
X4.9715Y-3.8978
X4.9715Y-3.9978
X4.9715Y-4.0978
X4.9715Y-4.1978
T0
M30
