%TF.GenerationSoftware,KiCad,Pcbnew,(6.0.6)*%
%TF.CreationDate,2022-11-17T16:30:16-05:00*%
%TF.ProjectId,JTAG_Breakout,4a544147-5f42-4726-9561-6b6f75742e6b,rev?*%
%TF.SameCoordinates,Original*%
%TF.FileFunction,Copper,L1,Top*%
%TF.FilePolarity,Positive*%
%FSLAX46Y46*%
G04 Gerber Fmt 4.6, Leading zero omitted, Abs format (unit mm)*
G04 Created by KiCad (PCBNEW (6.0.6)) date 2022-11-17 16:30:16*
%MOMM*%
%LPD*%
G01*
G04 APERTURE LIST*
%TA.AperFunction,ComponentPad*%
%ADD10R,1.350000X1.350000*%
%TD*%
%TA.AperFunction,ComponentPad*%
%ADD11O,1.350000X1.350000*%
%TD*%
%TA.AperFunction,ComponentPad*%
%ADD12R,1.700000X1.700000*%
%TD*%
%TA.AperFunction,ComponentPad*%
%ADD13O,1.700000X1.700000*%
%TD*%
%TA.AperFunction,Conductor*%
%ADD14C,0.250000*%
%TD*%
%TA.AperFunction,Conductor*%
%ADD15C,1.270000*%
%TD*%
G04 APERTURE END LIST*
D10*
%TO.P,J1,1,Pin_1*%
%TO.N,GND*%
X113500000Y-92530000D03*
D11*
%TO.P,J1,2,Pin_2*%
%TO.N,/VCCO_0*%
X115500000Y-92530000D03*
%TO.P,J1,3,Pin_3*%
%TO.N,GND*%
X113500000Y-94530000D03*
%TO.P,J1,4,Pin_4*%
%TO.N,/TMS*%
X115500000Y-94530000D03*
%TO.P,J1,5,Pin_5*%
%TO.N,GND*%
X113500000Y-96530000D03*
%TO.P,J1,6,Pin_6*%
%TO.N,/TCK*%
X115500000Y-96530000D03*
%TO.P,J1,7,Pin_7*%
%TO.N,GND*%
X113500000Y-98530000D03*
%TO.P,J1,8,Pin_8*%
%TO.N,/TDO*%
X115500000Y-98530000D03*
%TO.P,J1,9,Pin_9*%
%TO.N,GND*%
X113500000Y-100530000D03*
%TO.P,J1,10,Pin_10*%
%TO.N,/TDI*%
X115500000Y-100530000D03*
%TO.P,J1,11,Pin_11*%
%TO.N,GND*%
X113500000Y-102530000D03*
%TO.P,J1,12,Pin_12*%
%TO.N,unconnected-(J1-Pad12)*%
X115500000Y-102530000D03*
%TO.P,J1,13,Pin_13*%
%TO.N,GND*%
X113500000Y-104530000D03*
%TO.P,J1,14,Pin_14*%
%TO.N,/PS_SRST_B*%
X115500000Y-104530000D03*
%TD*%
D12*
%TO.P,J2,1,Pin_1*%
%TO.N,GND*%
X126275000Y-106625000D03*
D13*
%TO.P,J2,2,Pin_2*%
%TO.N,/PS_SRST_B*%
X123735000Y-106625000D03*
%TO.P,J2,3,Pin_3*%
%TO.N,GND*%
X126275000Y-104085000D03*
%TO.P,J2,4,Pin_4*%
%TO.N,unconnected-(J2-Pad4)*%
X123735000Y-104085000D03*
%TO.P,J2,5,Pin_5*%
%TO.N,GND*%
X126275000Y-101545000D03*
%TO.P,J2,6,Pin_6*%
%TO.N,/TDI*%
X123735000Y-101545000D03*
%TO.P,J2,7,Pin_7*%
%TO.N,GND*%
X126275000Y-99005000D03*
%TO.P,J2,8,Pin_8*%
%TO.N,/TDO*%
X123735000Y-99005000D03*
%TO.P,J2,9,Pin_9*%
%TO.N,GND*%
X126275000Y-96465000D03*
%TO.P,J2,10,Pin_10*%
%TO.N,/TCK*%
X123735000Y-96465000D03*
%TO.P,J2,11,Pin_11*%
%TO.N,GND*%
X126275000Y-93925000D03*
%TO.P,J2,12,Pin_12*%
%TO.N,/TMS*%
X123735000Y-93925000D03*
%TO.P,J2,13,Pin_13*%
%TO.N,GND*%
X126275000Y-91385000D03*
%TO.P,J2,14,Pin_14*%
%TO.N,/VCCO_0*%
X123735000Y-91385000D03*
%TD*%
D14*
%TO.N,GND*%
X113500000Y-98530000D02*
X113500000Y-100530000D01*
X126275000Y-91385000D02*
X126275000Y-93925000D01*
X113500000Y-96530000D02*
X113500000Y-98530000D01*
X126275000Y-96465000D02*
X126275000Y-99005000D01*
X113500000Y-92530000D02*
X113500000Y-94530000D01*
X113500000Y-100530000D02*
X113500000Y-102530000D01*
X113500000Y-102530000D02*
X113500000Y-104530000D01*
X126275000Y-106625000D02*
X126275000Y-104085000D01*
X126275000Y-101545000D02*
X126275000Y-104085000D01*
X126275000Y-99005000D02*
X126275000Y-101545000D01*
X126275000Y-93925000D02*
X126275000Y-96465000D01*
X113500000Y-94530000D02*
X113500000Y-96530000D01*
D15*
%TO.N,/VCCO_0*%
X123735000Y-91385000D02*
X116645000Y-91385000D01*
X116645000Y-91385000D02*
X115500000Y-92530000D01*
%TO.N,/TMS*%
X115500000Y-94530000D02*
X123130000Y-94530000D01*
X123130000Y-94530000D02*
X123735000Y-93925000D01*
%TO.N,/TCK*%
X123735000Y-96465000D02*
X115565000Y-96465000D01*
X115565000Y-96465000D02*
X115500000Y-96530000D01*
%TO.N,/TDO*%
X115500000Y-98530000D02*
X123260000Y-98530000D01*
X123260000Y-98530000D02*
X123735000Y-99005000D01*
%TO.N,/TDI*%
X115500000Y-100530000D02*
X118030000Y-100530000D01*
X119045000Y-101545000D02*
X123735000Y-101545000D01*
X118030000Y-100530000D02*
X119045000Y-101545000D01*
%TO.N,/PS_SRST_B*%
X120125000Y-106625000D02*
X118030000Y-104530000D01*
X123735000Y-106625000D02*
X120125000Y-106625000D01*
X118030000Y-104530000D02*
X115500000Y-104530000D01*
%TD*%
%TA.AperFunction,Conductor*%
%TO.N,GND*%
G36*
X129378843Y-87528207D02*
G01*
X129448084Y-87583426D01*
X129486511Y-87663218D01*
X129491500Y-87707500D01*
X129491500Y-109292500D01*
X129471793Y-109378843D01*
X129416574Y-109448084D01*
X129336782Y-109486511D01*
X129292500Y-109491500D01*
X109707500Y-109491500D01*
X109621157Y-109471793D01*
X109551916Y-109416574D01*
X109513489Y-109336782D01*
X109508500Y-109292500D01*
X109508500Y-104498887D01*
X114311837Y-104498887D01*
X114312434Y-104507991D01*
X114325450Y-104706578D01*
X114326063Y-104715933D01*
X114328307Y-104724770D01*
X114328308Y-104724774D01*
X114368527Y-104883133D01*
X114379605Y-104926753D01*
X114470668Y-105124285D01*
X114596204Y-105301914D01*
X114752009Y-105453692D01*
X114932863Y-105574536D01*
X115132712Y-105660397D01*
X115344860Y-105708402D01*
X115353970Y-105708760D01*
X115353971Y-105708760D01*
X115409300Y-105710934D01*
X115562205Y-105716941D01*
X115571226Y-105715633D01*
X115571227Y-105715633D01*
X115634982Y-105706389D01*
X115777466Y-105685730D01*
X115786102Y-105682798D01*
X115794976Y-105680668D01*
X115795279Y-105681932D01*
X115846350Y-105673500D01*
X117473919Y-105673500D01*
X117560262Y-105693207D01*
X117614633Y-105731786D01*
X119284461Y-107401614D01*
X119293363Y-107411118D01*
X119334494Y-107458019D01*
X119403289Y-107512254D01*
X119407189Y-107515411D01*
X119474539Y-107571425D01*
X119482497Y-107575881D01*
X119487369Y-107579230D01*
X119492370Y-107582478D01*
X119499537Y-107588128D01*
X119507613Y-107592377D01*
X119576994Y-107628880D01*
X119581519Y-107631337D01*
X119657903Y-107674114D01*
X119666548Y-107677048D01*
X119671951Y-107679454D01*
X119677445Y-107681730D01*
X119685527Y-107685982D01*
X119750410Y-107706129D01*
X119769108Y-107711935D01*
X119774061Y-107713545D01*
X119841904Y-107736574D01*
X119856911Y-107741668D01*
X119865937Y-107742977D01*
X119871706Y-107744362D01*
X119877516Y-107745597D01*
X119886234Y-107748304D01*
X119953936Y-107756317D01*
X119973162Y-107758592D01*
X119978287Y-107759266D01*
X120064897Y-107771825D01*
X120074011Y-107771467D01*
X120074012Y-107771467D01*
X120145629Y-107768653D01*
X120153442Y-107768500D01*
X122945224Y-107768500D01*
X123031567Y-107788207D01*
X123045624Y-107795684D01*
X123138948Y-107850218D01*
X123138956Y-107850222D01*
X123146000Y-107854338D01*
X123354692Y-107934030D01*
X123362691Y-107935657D01*
X123362693Y-107935658D01*
X123565598Y-107976940D01*
X123565603Y-107976941D01*
X123573597Y-107978567D01*
X123677241Y-107982368D01*
X123788676Y-107986454D01*
X123788679Y-107986454D01*
X123796837Y-107986753D01*
X123804930Y-107985716D01*
X123804935Y-107985716D01*
X124010316Y-107959406D01*
X124010320Y-107959405D01*
X124018416Y-107958368D01*
X124109245Y-107931118D01*
X124224568Y-107896519D01*
X124224569Y-107896519D01*
X124232384Y-107894174D01*
X124239713Y-107890584D01*
X124239717Y-107890582D01*
X124342962Y-107840002D01*
X124432994Y-107795896D01*
X124548447Y-107713545D01*
X124608208Y-107670918D01*
X124608210Y-107670917D01*
X124614860Y-107666173D01*
X124773096Y-107508489D01*
X124903453Y-107327077D01*
X125002430Y-107126811D01*
X125067370Y-106913069D01*
X125096529Y-106691590D01*
X125098156Y-106625000D01*
X125079852Y-106402361D01*
X125025431Y-106185702D01*
X125022175Y-106178213D01*
X125022173Y-106178208D01*
X124939612Y-105988333D01*
X124936354Y-105980840D01*
X124815014Y-105793277D01*
X124745228Y-105716583D01*
X124670168Y-105634093D01*
X124670167Y-105634092D01*
X124664670Y-105628051D01*
X124515124Y-105509946D01*
X124459578Y-105440967D01*
X124439462Y-105354718D01*
X124458760Y-105268283D01*
X124513650Y-105198781D01*
X124522900Y-105191767D01*
X124614860Y-105126173D01*
X124773096Y-104968489D01*
X124903453Y-104787077D01*
X125002430Y-104586811D01*
X125067370Y-104373069D01*
X125096529Y-104151590D01*
X125098156Y-104085000D01*
X125094750Y-104043567D01*
X125080521Y-103870497D01*
X125080521Y-103870496D01*
X125079852Y-103862361D01*
X125071616Y-103829570D01*
X125042044Y-103711842D01*
X125025431Y-103645702D01*
X125022175Y-103638213D01*
X125022173Y-103638208D01*
X124939612Y-103448333D01*
X124936354Y-103440840D01*
X124846479Y-103301914D01*
X124819449Y-103260132D01*
X124819447Y-103260130D01*
X124815014Y-103253277D01*
X124795455Y-103231782D01*
X124670168Y-103094093D01*
X124670167Y-103094092D01*
X124664670Y-103088051D01*
X124559252Y-103004796D01*
X124515124Y-102969946D01*
X124459578Y-102900967D01*
X124439462Y-102814718D01*
X124458760Y-102728283D01*
X124513650Y-102658781D01*
X124522900Y-102651767D01*
X124583292Y-102608690D01*
X124614860Y-102586173D01*
X124773096Y-102428489D01*
X124903453Y-102247077D01*
X125002430Y-102046811D01*
X125067370Y-101833069D01*
X125096529Y-101611590D01*
X125098156Y-101545000D01*
X125097723Y-101539732D01*
X125080521Y-101330497D01*
X125080521Y-101330496D01*
X125079852Y-101322361D01*
X125076317Y-101308285D01*
X125031969Y-101131732D01*
X125025431Y-101105702D01*
X125022175Y-101098213D01*
X125022173Y-101098208D01*
X124939612Y-100908333D01*
X124936354Y-100900840D01*
X124815014Y-100713277D01*
X124664670Y-100548051D01*
X124515124Y-100429946D01*
X124459578Y-100360967D01*
X124439462Y-100274718D01*
X124458760Y-100188283D01*
X124513650Y-100118781D01*
X124522900Y-100111767D01*
X124608213Y-100050914D01*
X124614860Y-100046173D01*
X124773096Y-99888489D01*
X124903453Y-99707077D01*
X124919430Y-99674751D01*
X124998814Y-99514127D01*
X125002430Y-99506811D01*
X125067370Y-99293069D01*
X125096529Y-99071590D01*
X125098156Y-99005000D01*
X125079852Y-98782361D01*
X125063167Y-98715933D01*
X125027421Y-98573626D01*
X125025431Y-98565702D01*
X125022175Y-98558213D01*
X125022173Y-98558208D01*
X124939612Y-98368333D01*
X124936354Y-98360840D01*
X124815014Y-98173277D01*
X124664670Y-98008051D01*
X124515124Y-97889946D01*
X124459578Y-97820967D01*
X124439462Y-97734718D01*
X124458760Y-97648283D01*
X124513650Y-97578781D01*
X124522900Y-97571767D01*
X124555001Y-97548870D01*
X124614860Y-97506173D01*
X124773096Y-97348489D01*
X124903453Y-97167077D01*
X124920922Y-97131732D01*
X124998814Y-96974127D01*
X125002430Y-96966811D01*
X125067370Y-96753069D01*
X125096529Y-96531590D01*
X125098156Y-96465000D01*
X125079852Y-96242361D01*
X125025431Y-96025702D01*
X125022175Y-96018213D01*
X125022173Y-96018208D01*
X124939612Y-95828333D01*
X124936354Y-95820840D01*
X124815014Y-95633277D01*
X124664670Y-95468051D01*
X124646489Y-95453692D01*
X124515124Y-95349946D01*
X124459578Y-95280967D01*
X124439462Y-95194718D01*
X124458760Y-95108283D01*
X124513650Y-95038781D01*
X124522900Y-95031767D01*
X124608213Y-94970914D01*
X124614860Y-94966173D01*
X124773096Y-94808489D01*
X124903453Y-94627077D01*
X125002430Y-94426811D01*
X125067370Y-94213069D01*
X125096529Y-93991590D01*
X125098156Y-93925000D01*
X125081220Y-93719005D01*
X125080521Y-93710497D01*
X125080521Y-93710496D01*
X125079852Y-93702361D01*
X125025431Y-93485702D01*
X125022175Y-93478213D01*
X125022173Y-93478208D01*
X124939612Y-93288333D01*
X124936354Y-93280840D01*
X124815014Y-93093277D01*
X124797369Y-93073885D01*
X124670168Y-92934093D01*
X124670167Y-92934092D01*
X124664670Y-92928051D01*
X124515124Y-92809946D01*
X124459578Y-92740967D01*
X124439462Y-92654718D01*
X124458760Y-92568283D01*
X124513650Y-92498781D01*
X124522900Y-92491767D01*
X124608213Y-92430914D01*
X124614860Y-92426173D01*
X124773096Y-92268489D01*
X124903453Y-92087077D01*
X125002430Y-91886811D01*
X125067370Y-91673069D01*
X125096529Y-91451590D01*
X125098156Y-91385000D01*
X125079852Y-91162361D01*
X125025431Y-90945702D01*
X125022175Y-90938213D01*
X125022173Y-90938208D01*
X124939612Y-90748333D01*
X124936354Y-90740840D01*
X124842999Y-90596535D01*
X124819449Y-90560132D01*
X124819447Y-90560130D01*
X124815014Y-90553277D01*
X124680847Y-90405829D01*
X124670168Y-90394093D01*
X124670167Y-90394092D01*
X124664670Y-90388051D01*
X124489359Y-90249598D01*
X124482212Y-90245653D01*
X124482208Y-90245650D01*
X124400928Y-90200782D01*
X124293789Y-90141638D01*
X124286092Y-90138912D01*
X124286089Y-90138911D01*
X124090906Y-90069793D01*
X124090900Y-90069791D01*
X124083212Y-90067069D01*
X124075180Y-90065638D01*
X124075175Y-90065637D01*
X123963601Y-90045763D01*
X123863284Y-90027894D01*
X123855117Y-90027794D01*
X123855115Y-90027794D01*
X123760389Y-90026637D01*
X123639911Y-90025165D01*
X123631842Y-90026400D01*
X123631838Y-90026400D01*
X123427161Y-90057720D01*
X123427160Y-90057720D01*
X123419091Y-90058955D01*
X123411336Y-90061490D01*
X123411335Y-90061490D01*
X123214511Y-90125822D01*
X123214508Y-90125823D01*
X123206756Y-90128357D01*
X123032604Y-90219015D01*
X122940716Y-90241500D01*
X116690200Y-90241500D01*
X116677184Y-90241074D01*
X116675855Y-90240987D01*
X116614939Y-90236994D01*
X116605882Y-90238066D01*
X116605880Y-90238066D01*
X116528007Y-90247283D01*
X116522826Y-90247827D01*
X116444814Y-90254995D01*
X116444809Y-90254996D01*
X116435721Y-90255831D01*
X116426935Y-90258309D01*
X116421088Y-90259393D01*
X116415300Y-90260623D01*
X116406235Y-90261696D01*
X116333827Y-90284180D01*
X116322685Y-90287639D01*
X116317690Y-90289119D01*
X116233451Y-90312877D01*
X116225263Y-90316915D01*
X116219729Y-90319039D01*
X116214242Y-90321312D01*
X116205527Y-90324018D01*
X116197453Y-90328266D01*
X116197448Y-90328268D01*
X116128085Y-90364761D01*
X116123445Y-90367125D01*
X116053148Y-90401792D01*
X116053143Y-90401795D01*
X116044963Y-90405829D01*
X116037657Y-90411284D01*
X116032617Y-90414373D01*
X116027614Y-90417622D01*
X116019538Y-90421871D01*
X116012370Y-90427522D01*
X116012365Y-90427525D01*
X115950844Y-90476024D01*
X115946712Y-90479195D01*
X115883883Y-90526112D01*
X115883877Y-90526117D01*
X115876571Y-90531573D01*
X115870381Y-90538269D01*
X115870378Y-90538272D01*
X115821728Y-90590902D01*
X115816312Y-90596535D01*
X114925233Y-91487614D01*
X114886268Y-91517921D01*
X114801376Y-91568427D01*
X114637842Y-91711842D01*
X114503181Y-91882658D01*
X114401905Y-92075154D01*
X114399202Y-92083857D01*
X114399201Y-92083861D01*
X114396143Y-92093709D01*
X114337403Y-92282882D01*
X114311837Y-92498887D01*
X114317598Y-92586786D01*
X114323919Y-92683218D01*
X114326063Y-92715933D01*
X114328307Y-92724770D01*
X114328308Y-92724774D01*
X114374242Y-92905635D01*
X114379605Y-92926753D01*
X114470668Y-93124285D01*
X114475931Y-93131732D01*
X114555937Y-93244937D01*
X114596204Y-93301914D01*
X114602744Y-93308285D01*
X114683174Y-93386636D01*
X114731270Y-93461001D01*
X114742337Y-93548870D01*
X114714184Y-93632839D01*
X114675523Y-93678797D01*
X114644699Y-93705828D01*
X114644696Y-93705832D01*
X114637842Y-93711842D01*
X114503181Y-93882658D01*
X114401905Y-94075154D01*
X114337403Y-94282882D01*
X114311837Y-94498887D01*
X114326063Y-94715933D01*
X114328307Y-94724770D01*
X114328308Y-94724774D01*
X114351034Y-94814254D01*
X114379605Y-94926753D01*
X114470668Y-95124285D01*
X114475931Y-95131732D01*
X114539470Y-95221638D01*
X114596204Y-95301914D01*
X114602744Y-95308285D01*
X114683174Y-95386636D01*
X114731270Y-95461001D01*
X114742337Y-95548870D01*
X114714184Y-95632839D01*
X114675523Y-95678797D01*
X114644699Y-95705828D01*
X114644696Y-95705832D01*
X114637842Y-95711842D01*
X114503181Y-95882658D01*
X114401905Y-96075154D01*
X114337403Y-96282882D01*
X114336331Y-96291939D01*
X114315223Y-96470282D01*
X114311837Y-96498887D01*
X114326063Y-96715933D01*
X114328307Y-96724770D01*
X114328308Y-96724774D01*
X114333436Y-96744963D01*
X114379605Y-96926753D01*
X114470668Y-97124285D01*
X114596204Y-97301914D01*
X114602744Y-97308285D01*
X114683174Y-97386636D01*
X114731270Y-97461001D01*
X114742337Y-97548870D01*
X114714184Y-97632839D01*
X114675523Y-97678797D01*
X114644699Y-97705828D01*
X114644696Y-97705832D01*
X114637842Y-97711842D01*
X114503181Y-97882658D01*
X114401905Y-98075154D01*
X114399202Y-98083857D01*
X114399201Y-98083861D01*
X114371437Y-98173277D01*
X114337403Y-98282882D01*
X114311837Y-98498887D01*
X114326063Y-98715933D01*
X114328307Y-98724770D01*
X114328308Y-98724774D01*
X114342934Y-98782361D01*
X114379605Y-98926753D01*
X114470668Y-99124285D01*
X114596204Y-99301914D01*
X114602744Y-99308285D01*
X114683174Y-99386636D01*
X114731270Y-99461001D01*
X114742337Y-99548870D01*
X114714184Y-99632839D01*
X114675523Y-99678797D01*
X114644699Y-99705828D01*
X114644696Y-99705832D01*
X114637842Y-99711842D01*
X114503181Y-99882658D01*
X114401905Y-100075154D01*
X114337403Y-100282882D01*
X114336331Y-100291939D01*
X114323364Y-100401500D01*
X114311837Y-100498887D01*
X114326063Y-100715933D01*
X114328307Y-100724770D01*
X114328308Y-100724774D01*
X114374927Y-100908333D01*
X114379605Y-100926753D01*
X114470668Y-101124285D01*
X114596204Y-101301914D01*
X114602744Y-101308285D01*
X114683174Y-101386636D01*
X114731270Y-101461001D01*
X114742337Y-101548870D01*
X114714184Y-101632839D01*
X114675523Y-101678797D01*
X114644699Y-101705828D01*
X114644696Y-101705832D01*
X114637842Y-101711842D01*
X114503181Y-101882658D01*
X114401905Y-102075154D01*
X114399202Y-102083857D01*
X114399201Y-102083861D01*
X114392931Y-102104055D01*
X114337403Y-102282882D01*
X114336331Y-102291939D01*
X114319346Y-102435447D01*
X114311837Y-102498887D01*
X114312434Y-102507991D01*
X114320608Y-102632700D01*
X114326063Y-102715933D01*
X114328307Y-102724770D01*
X114328308Y-102724774D01*
X114358390Y-102843218D01*
X114379605Y-102926753D01*
X114470668Y-103124285D01*
X114475931Y-103131732D01*
X114548126Y-103233885D01*
X114596204Y-103301914D01*
X114602744Y-103308285D01*
X114683174Y-103386636D01*
X114731270Y-103461001D01*
X114742337Y-103548870D01*
X114714184Y-103632839D01*
X114675523Y-103678797D01*
X114644699Y-103705828D01*
X114644696Y-103705832D01*
X114637842Y-103711842D01*
X114503181Y-103882658D01*
X114401905Y-104075154D01*
X114399202Y-104083857D01*
X114399201Y-104083861D01*
X114379811Y-104146306D01*
X114337403Y-104282882D01*
X114311837Y-104498887D01*
X109508500Y-104498887D01*
X109508500Y-87707500D01*
X109528207Y-87621157D01*
X109583426Y-87551916D01*
X109663218Y-87513489D01*
X109707500Y-87508500D01*
X129292500Y-87508500D01*
X129378843Y-87528207D01*
G37*
%TD.AperFunction*%
%TD*%
M02*
